# File created by Blade
# Date/Time:  Wed Apr 08 16:19:59 2015
# Frame Rate: 120.000 fps
#------------------------------------------------------
:FULLY-SPECIFIED
:DEGREES
2378
root -21.867500 28.167907 -0.037656 349.932297 -80.907173 -411.160417
Spine -73.071699 -11.213392 5.434267
Head -90.243250 3.029072 12.334323
LeftShoulder -15.536729 -3.587134 45.359506
LeftArm 205.591451 -62.363869 -176.633246
LeftForeArm -10.378248 -0.000000 28.293673
LeftHand 18.022028 -0.000000 110.040877
LeftHandThumb1 -26.253704 0.000000 33.147579
RightShoulder -29.936878 45.565211 -69.290790
RightArm 1.022153 77.915252 7.570068
RightForeArm 10.293644 -0.000000 55.760495
RightHand 19.878795 0.000000 -92.508715
RightHandThumb1 -24.326973 -0.000000 -32.862282
LeftUpLeg 3.818135 6.798319 12.735286
LeftLeg 63.381665 -0.000000 -0.000000
LeftFoot -1.937225 0.310309 -9.774372
LeftToeBase -31.917286 -0.000000 0.000000
RightUpLeg 5.724745 -14.655827 -10.808741
RightLeg 59.653010 -0.000000 -0.000000
RightFoot 15.592382 8.041338 2.946147
RightToeBase -45.392345 -0.000000 0.000000
2379
root -21.848227 28.160778 -0.037671 349.878117 -80.911067 -411.071269
Spine -73.060967 -11.179994 5.469465
Head -90.231390 3.029471 12.264934
LeftShoulder -15.576159 -3.704684 45.346735
LeftArm 205.573575 -62.317880 -176.626416
LeftForeArm -10.273717 -0.000000 28.365219
LeftHand 17.780654 -0.000000 110.047115
LeftHandThumb1 -26.253704 0.000000 33.147579
RightShoulder -30.048295 45.670736 -69.427329
RightArm 1.025218 77.978545 7.574614
RightForeArm 10.133043 -0.000000 55.798240
RightHand 19.877254 -0.000000 -92.392063
RightHandThumb1 -24.326973 -0.000000 -32.862282
LeftUpLeg 3.614020 6.945868 12.692458
LeftLeg 63.791049 -0.000000 -0.000000
LeftFoot -2.063240 0.669899 -10.221540
LeftToeBase -30.520716 -0.000000 0.000000
RightUpLeg 5.623150 -14.657027 -10.912751
RightLeg 59.664701 -0.000000 -0.000000
RightFoot 15.901563 8.399349 2.669940
RightToeBase -45.949598 -0.000000 0.000000
2380
root -21.832680 28.150687 -0.033663 349.817264 -80.888806 -410.999804
Spine -72.992738 -11.166488 5.483617
Head -90.250941 3.021541 12.261733
LeftShoulder -15.560273 -3.797489 45.366158
LeftArm 206.002673 -62.362381 -177.117852
LeftForeArm -10.268228 -0.000000 28.383963
LeftHand 17.749434 -0.000000 110.032882
LeftHandThumb1 -26.253704 0.000000 33.147579
RightShoulder -30.154438 45.718562 -69.469427
RightArm 1.347558 78.116420 7.788266
RightForeArm 10.028601 0.000000 55.780194
RightHand 19.910725 -0.000000 -92.405558
RightHandThumb1 -24.326973 -0.000000 -32.862282
LeftUpLeg 3.447456 7.031116 12.633742
LeftLeg 64.214078 -0.000000 -0.000000
LeftFoot -2.306700 1.087496 -10.823385
LeftToeBase -29.130116 -0.000000 0.000000
RightUpLeg 5.555274 -14.681624 -11.032669
RightLeg 59.696405 -0.000000 -0.000000
RightFoot 16.147161 8.818000 2.596617
RightToeBase -45.955335 -0.000000 0.000000
2381
root -21.821176 28.137841 -0.027643 349.710467 -80.874385 -410.877688
Spine -72.918418 -11.134279 5.483953
Head -90.299464 2.993301 12.217331
LeftShoulder -15.527834 -3.882221 45.367621
LeftArm 206.469864 -62.376538 -177.611053
LeftForeArm -10.317610 -0.000000 28.366723
LeftHand 17.719133 0.000000 110.070346
LeftHandThumb1 -26.253704 0.000000 33.147579
RightShoulder -30.166285 45.781933 -69.487309
RightArm 0.961124 78.184797 7.240846
RightForeArm 10.006912 -0.000000 55.762346
RightHand 19.839186 -0.000000 -92.439235
RightHandThumb1 -24.326973 -0.000000 -32.862282
LeftUpLeg 3.311823 7.108241 12.570248
LeftLeg 64.663636 -0.000000 -0.000000
LeftFoot -2.657735 1.544177 -11.658793
LeftToeBase -27.994111 -0.000000 0.000000
RightUpLeg 5.470715 -14.722198 -11.162295
RightLeg 59.730210 -0.000000 -0.000000
RightFoot 16.442326 9.159034 2.640030
RightToeBase -46.305524 -0.000000 0.000000
2382
root -21.809684 28.122927 -0.020011 349.574941 -80.848793 -410.709034
Spine -72.845167 -11.123400 5.488672
Head -90.319402 3.022987 12.120849
LeftShoulder -15.474972 -4.047995 45.422890
LeftArm 207.232949 -62.524884 -178.378774
LeftForeArm -10.485325 -0.000000 28.264643
LeftHand 17.775308 -0.000000 110.138509
LeftHandThumb1 -26.253704 0.000000 33.147579
RightShoulder -30.227528 45.879389 -69.541569
RightArm 0.401224 78.155202 6.516798
RightForeArm 10.080878 -0.000000 55.691709
RightHand 19.836500 -0.000000 -92.587962
RightHandThumb1 -24.326973 -0.000000 -32.862282
LeftUpLeg 3.181309 7.197935 12.502660
LeftLeg 65.100652 -0.000000 -0.000000
LeftFoot -3.062319 2.114537 -12.502482
LeftToeBase -26.976650 -0.000000 0.000000
RightUpLeg 5.378059 -14.799656 -11.287608
RightLeg 59.777164 -0.000000 -0.000000
RightFoot 16.640427 9.408193 2.613313
RightToeBase -46.517984 -0.000000 0.000000
2383
root -21.803730 28.107985 -0.015124 349.602638 -80.823332 -410.738942
Spine -72.718796 -11.118230 5.511963
Head -90.373679 3.021023 12.101516
LeftShoulder -15.482025 -4.159709 45.421176
LeftArm 207.786137 -62.597943 -178.899310
LeftForeArm -10.522144 -0.000000 28.165414
LeftHand 17.755799 -0.000000 110.001635
LeftHandThumb1 -26.253704 0.000000 33.147579
RightShoulder -30.293844 45.877523 -69.634696
RightArm -0.446939 78.158865 5.616369
RightForeArm 10.197768 -0.000000 55.683977
RightHand 19.830649 -0.000000 -92.639845
RightHandThumb1 -24.326973 -0.000000 -32.862282
LeftUpLeg 3.134795 7.270011 12.504712
LeftLeg 65.587180 -0.000000 -0.000000
LeftFoot -3.552919 2.413111 -13.166573
LeftToeBase -25.961940 -0.000000 0.000000
RightUpLeg 5.330229 -14.910134 -11.379931
RightLeg 59.829801 -0.000000 -0.000000
RightFoot 16.821155 9.628002 2.425466
RightToeBase -46.424808 -0.000000 0.000000
2384
root -21.795777 28.090702 -0.009384 349.582344 -80.794519 -410.688232
Spine -72.624627 -11.109157 5.530154
Head -90.447131 3.027977 12.048591
LeftShoulder -15.483975 -4.257147 45.421795
LeftArm 208.350285 -62.623680 -179.431530
LeftForeArm -10.679229 0.000000 28.054896
LeftHand 17.753490 -0.000000 110.087098
LeftHandThumb1 -26.253704 0.000000 33.147579
RightShoulder -30.402782 45.848165 -69.760607
RightArm -1.191497 78.146821 4.871581
RightForeArm 10.424094 -0.000000 55.727933
RightHand 19.792447 -0.000000 -92.743757
RightHandThumb1 -24.326973 -0.000000 -32.862282
LeftUpLeg 3.050267 7.370844 12.482224
LeftLeg 66.056911 -0.000000 -0.000000
LeftFoot -4.001755 2.458163 -13.720939
LeftToeBase -25.219740 -0.000000 0.000000
RightUpLeg 5.235202 -15.015285 -11.455974
RightLeg 59.911919 -0.000000 -0.000000
RightFoot 16.954324 9.752156 2.383145
RightToeBase -46.476637 -0.000000 0.000000
2385
root -21.790450 28.072214 -0.004661 349.590437 -80.751528 -410.666067
Spine -72.516473 -11.129344 5.546298
Head -90.507188 3.067920 12.004162
LeftShoulder -15.483215 -4.379107 45.462599
LeftArm 208.864823 -62.606738 -179.936374
LeftForeArm -10.732443 -0.000000 27.982472
LeftHand 17.736599 0.000000 110.145916
LeftHandThumb1 -26.253704 0.000000 33.147579
RightShoulder -30.424550 45.797080 -69.831851
RightArm -2.593538 78.123366 3.461898
RightForeArm 10.662709 -0.000000 55.756649
RightHand 19.781510 -0.000000 -92.797543
RightHandThumb1 -24.326973 -0.000000 -32.862282
LeftUpLeg 3.008396 7.440805 12.486214
LeftLeg 66.548275 -0.000000 -0.000000
LeftFoot -4.430863 2.079792 -13.909733
LeftToeBase -24.446643 -0.000000 0.000000
RightUpLeg 5.149088 -15.146919 -11.518558
RightLeg 59.995697 -0.000000 -0.000000
RightFoot 17.051790 9.811819 2.258787
RightToeBase -46.694018 -0.000000 0.000000
2386
root -21.786371 28.053539 0.001503 349.602323 -80.721682 -410.644659
Spine -72.411876 -11.142221 5.575911
Head -90.542418 3.138002 11.935664
LeftShoulder -15.492540 -4.501917 45.521345
LeftArm 209.287727 -62.569701 -180.370335
LeftForeArm -10.772496 -0.000000 27.954727
LeftHand 17.766049 -0.000000 110.093762
LeftHandThumb1 -26.253704 0.000000 33.147579
RightShoulder -30.381469 45.703700 -69.812952
RightArm -4.024653 78.148312 1.994253
RightForeArm 10.815184 -0.000000 55.751412
RightHand 19.722554 -0.000000 -92.800395
RightHandThumb1 -24.326973 -0.000000 -32.862282
LeftUpLeg 3.028437 7.500737 12.505554
LeftLeg 67.037551 -0.000000 -0.000000
LeftFoot -4.901055 1.460253 -14.005996
LeftToeBase -23.868392 -0.000000 0.000000
RightUpLeg 5.046167 -15.255323 -11.560000
RightLeg 60.101864 -0.000000 -0.000000
RightFoot 17.123135 9.773354 2.178706
RightToeBase -46.986048 -0.000000 0.000000
2387
root -21.782632 28.035539 0.008712 349.601324 -80.690919 -410.621834
Spine -72.301303 -11.140792 5.587069
Head -90.584681 3.158798 11.880469
LeftShoulder -15.511797 -4.608978 45.513586
LeftArm 209.559081 -62.493856 -180.620324
LeftForeArm -10.821266 -0.000000 27.950772
LeftHand 17.838480 -0.000000 109.959690
LeftHandThumb1 -26.253704 0.000000 33.147579
RightShoulder -30.254430 45.629593 -69.757232
RightArm -5.888772 78.075475 0.034266
RightForeArm 11.131301 0.000000 55.764800
RightHand 19.729540 -0.000000 -92.872417
RightHandThumb1 -24.326973 -0.000000 -32.862282
LeftUpLeg 3.060884 7.606491 12.507488
LeftLeg 67.498898 -0.000000 -0.000000
LeftFoot -5.084029 1.212128 -13.579012
LeftToeBase -24.246918 -0.000000 0.000000
RightUpLeg 4.951763 -15.355835 -11.598620
RightLeg 60.226874 -0.000000 -0.000000
RightFoot 17.148661 9.744588 2.130693
RightToeBase -46.836207 -0.000000 0.000000
2388
root -21.777933 28.017547 0.018505 349.575731 -80.657306 -410.579208
Spine -72.195169 -11.155280 5.612921
Head -90.611599 3.239306 11.840060
LeftShoulder -15.509293 -4.649055 45.508126
LeftArm 210.029948 -62.421536 -181.064098
LeftForeArm -10.886773 -0.000000 27.925449
LeftHand 17.868490 -0.000000 109.939437
LeftHandThumb1 -26.253704 0.000000 33.147579
RightShoulder -30.243498 45.640512 -69.718673
RightArm -6.815369 78.021529 -1.002681
RightForeArm 11.307408 -0.000000 55.781433
RightHand 19.723960 0.000000 -92.788203
RightHandThumb1 -24.326973 -0.000000 -32.862282
LeftUpLeg 3.142657 7.717321 12.502689
LeftLeg 67.920667 -0.000000 -0.000000
LeftFoot -5.155491 1.181147 -12.904841
LeftToeBase -24.828328 -0.000000 0.000000
RightUpLeg 4.862183 -15.463983 -11.640453
RightLeg 60.332825 -0.000000 -0.000000
RightFoot 17.259164 9.616785 1.958024
RightToeBase -47.841550 -0.000000 0.000000
